<svg xmlns="http://www.w3.org/2000/svg" viewBox="0 0 256 256" role="img" aria-labelledby="title desc">
  <title id="title">Jingyao logo option 5</title>
  <desc id="desc">Shield JY mark with stable manufacturing identity.</desc>
  <defs>
    <linearGradient id="g5" x1="58" y1="24" x2="196" y2="232" gradientUnits="userSpaceOnUse">
      <stop stop-color="#2C8CFF"/>
      <stop offset="1" stop-color="#0B2E66"/>
    </linearGradient>
  </defs>
  <path d="M128 22 212 58v70c0 52-31 89-84 108-53-19-84-56-84-108V58l84-36Z" fill="url(#g5)"/>
  <path d="M128 43 192 70v58c0 39-22 67-64 84-42-17-64-45-64-84V70l64-27Z" fill="none" stroke="#D8ECFF" stroke-width="5" opacity=".78"/>
  <path d="M86 95v45c0 15-9 24-24 24" fill="none" stroke="#fff" stroke-width="13" stroke-linecap="round"/>
  <path d="M108 92 132 128l24-36M132 128v39" fill="none" stroke="#fff" stroke-width="13" stroke-linecap="round" stroke-linejoin="round"/>
  <path d="M92 62h72M86 188h84" stroke="#8EC5FF" stroke-width="6" stroke-linecap="round" opacity=".8"/>
</svg>
